HIERARCHY
ROOT hip
{
	OFFSET 0.000000 0.000000 0.000000 
	CHANNELS 6 Xposition Yposition Zposition Xrotation Zrotation Yrotation
	JOINT abdomen
	{
		OFFSET 0.000000 3.402643 0.000000 
		CHANNELS 3 Xrotation Zrotation Yrotation
		JOINT chest
		{
			OFFSET 0.000000 8.438565 -0.680529 
			CHANNELS 3 Xrotation Zrotation Yrotation
			JOINT neck
			{
				OFFSET 0.000000 10.207942 -0.272212 
				CHANNELS 3 Xrotation Zrotation Yrotation
				JOINT head
				{
					OFFSET 0.000000 3.130431 0.000000 
					CHANNELS 3 Xrotation Zrotation Yrotation
					End Site
					{
						OFFSET 0.000000 3.130435 0.000000 
					}
				}
			}
			JOINT lCollar
			{
				OFFSET 3.470700 6.669187 -0.816635 
				CHANNELS 3 Yrotation Zrotation Xrotation
				JOINT lShldr
				{
					OFFSET 3.198488 0.000000 0.000000 
					CHANNELS 3 Zrotation Yrotation Xrotation
					JOINT lForeArm
					{
						OFFSET 10.139888 0.000000 0.000000 
						CHANNELS 3 Yrotation Zrotation Xrotation
						JOINT lHand
						{
							OFFSET 8.370511 0.000000 0.000000 
							CHANNELS 3 Zrotation Yrotation Xrotation
							End Site
							{
								OFFSET 4.083176 0.000000 0.000000 
							}
						}
					}
				}
			}
			JOINT rCollar
			{
				OFFSET -3.470700 6.669187 -0.816635 
				CHANNELS 3 Yrotation Zrotation Xrotation
				JOINT rShldr
				{
					OFFSET -3.198488 0.000000 0.000000 
					CHANNELS 3 Zrotation Yrotation Xrotation
					JOINT rForeArm
					{
						OFFSET -10.139888 0.000000 0.000000 
						CHANNELS 3 Yrotation Zrotation Xrotation
						JOINT rHand
						{
							OFFSET -8.370511 0.000000 0.000000 
							CHANNELS 3 Zrotation Yrotation Xrotation
							End Site
							{
								OFFSET -4.083176 0.000000 0.000000 
							}
						}
					}
				}
			}
		}
	}
	JOINT lThigh
	{
		OFFSET 5.308129 -1.633274 1.361059 
		CHANNELS 3 Xrotation Zrotation Yrotation
		JOINT lShin
		{
			OFFSET -2.041588 -20.007561 0.000000 
			CHANNELS 3 Xrotation Zrotation Yrotation
			JOINT lFoot
			{
				OFFSET 0.000000 -19.190928 -1.224953 
				CHANNELS 3 Xrotation Yrotation Zrotation
				End Site
				{
					OFFSET 0.000000 -2.449906 4.627600 
				}
			}
		}
	}
	JOINT rThigh
	{
		OFFSET -5.308129 -1.633274 1.361059 
		CHANNELS 3 Xrotation Zrotation Yrotation
		JOINT rShin
		{
			OFFSET 2.041588 -20.007561 0.000000 
			CHANNELS 3 Xrotation Zrotation Yrotation
			JOINT rFoot
			{
				OFFSET 0.000000 -19.190928 -1.224953 
				CHANNELS 3 Xrotation Yrotation Zrotation
				End Site
				{
					OFFSET 0.000000 -2.449906 4.627600 
				}
			}
		}
	}
}
MOTION
Frames: 19
Frame Time: 0.033333
16.462545 47.316219 -56.778378 -12.382813 0.585938 8.994140 33.446354 -2.043023 -2.285913 -14.991847 2.467918 -1.997074 2.673020 -5.103721 -6.327742 -3.062197 10.667551 -9.364192 -9.415129 -6.928720 -0.005951 -61.511658 17.708414 14.608267 -119.408661 2.353056 29.075808 17.881836 17.292225 5.473962 21.855623 3.606626 -0.007355 58.838482 -15.512353 -1.927878 122.642410 0.303055 -2.488693 -4.024092 -0.768058 0.048703 -14.199309 20.351355 16.888212 76.571342 1.636712 -4.174879 -0.676481 -1.684557 -12.215914 -9.470005 -2.343121 -1.648214 39.450905 0.703118 3.034266 -21.480663 6.625256 15.049256 
16.365282 47.432045 -55.423733 -11.914063 0.468750 8.671864 32.859989 -2.038117 -2.008698 -14.203331 0.978145 -1.688113 3.505500 -4.630750 -6.354052 -3.178883 12.189178 -9.570003 -8.551604 -6.407996 -0.008812 -60.904484 15.754939 16.064194 -121.844986 2.100354 25.834774 20.662188 18.906992 6.960244 21.305271 3.784440 -0.000018 57.616512 -12.159773 -0.633206 130.141769 0.175809 -0.802234 -23.413113 -5.517624 2.371707 -17.235073 18.385969 17.937033 71.944046 1.292065 -4.113955 -4.740812 -2.183627 -12.388839 -7.907867 -2.001783 -1.698183 39.471420 0.709320 3.008248 -23.802986 7.059305 15.594773 
16.273836 47.409046 -54.053303 -11.523438 0.302734 8.759766 32.425331 -2.189926 -1.618666 -13.331386 0.397427 -1.264773 4.440331 -4.162812 -6.799315 -4.117175 13.236817 -10.280210 -8.266309 -6.018472 -0.008622 -61.007763 11.696737 13.943324 -124.801773 2.010395 24.791220 11.864032 20.536518 4.206682 20.337523 2.895060 -0.001358 56.637238 -8.488431 -4.789886 134.534683 -0.002783 1.251383 -24.115194 4.035940 -1.815562 -19.588501 16.472410 18.824158 65.308586 0.844689 -3.983161 -7.219471 -6.218378 -13.052937 -6.443788 -1.884595 -2.998707 39.812511 0.693248 3.038936 -26.039200 7.616329 16.252983 
16.183222 47.273682 -52.665405 -11.279297 0.146484 9.121119 31.820496 -1.978836 -0.903160 -11.629686 -1.476047 -0.670620 5.402722 -2.588119 -7.537414 -5.616822 13.608390 -11.235816 -8.590446 -5.056082 -0.004669 -59.606670 5.401558 12.399900 -126.462807 2.151237 26.529074 9.222782 16.136839 2.585676 19.652546 3.036081 -0.006987 55.350395 -4.425028 -12.084819 139.398972 -0.063970 2.036747 -22.857347 2.826218 -1.198561 -21.121811 14.607725 19.974579 57.541332 0.328487 -3.786136 -8.529929 -11.068312 -13.983747 -4.973768 -1.793827 -4.807368 40.524590 0.634768 3.082698 -27.593069 8.479078 17.000437 
16.085819 47.068897 -51.247581 -11.376953 0.029297 10.126959 31.706953 -2.103530 -0.498499 -10.767329 -1.831074 -0.256522 7.521264 -2.035274 -8.156617 -7.382080 15.163841 -12.422867 -8.052921 -5.265881 -0.006794 -57.925941 -3.902652 13.099351 -128.557449 2.262394 28.085218 11.353426 16.945858 3.345392 19.698458 3.202906 -0.007250 52.955158 -2.075958 -20.761801 142.541214 0.224239 -1.200255 -22.154680 4.157001 -1.696914 -21.625996 12.718040 21.975870 50.171402 -0.130929 -3.527192 -9.725224 -13.427370 -14.647752 -3.198801 -1.598500 -6.988500 41.432884 0.605376 3.106827 -29.572031 9.053795 17.767412 
15.910547 46.814655 -49.814106 -11.328125 -0.175781 11.728486 31.463318 -2.455593 -0.278965 -10.448298 -1.389177 0.066098 9.175542 -1.416640 -8.946802 -7.146019 16.087111 -13.361874 -8.367426 -5.743686 -0.007742 -56.432327 -13.945700 12.503003 -130.641922 2.384307 29.742783 12.277887 18.526352 3.955636 19.360456 3.548461 -0.006451 50.067230 0.134752 -28.736389 143.299545 0.403349 -3.228516 -21.451958 4.237326 -1.677985 -22.153730 11.195250 25.221338 45.958614 -0.381897 -3.347081 -10.662876 -9.839432 -14.183694 -1.834466 -1.053378 -9.456083 42.954659 0.517588 3.187370 -31.777714 8.878141 18.174637 
15.664060 46.469517 -48.349316 -11.875000 -0.908203 13.701173 32.070999 -2.551975 -0.907158 -11.109886 -0.427338 -0.461257 10.698709 -0.355592 -9.118916 -5.964134 16.404745 -13.375292 -8.636004 -5.322600 -0.010243 -55.903400 -22.860970 10.451383 -131.472122 2.368348 29.480322 14.428090 18.215998 4.600873 19.853403 3.240377 0.002114 48.653645 2.242974 -34.689293 142.993408 0.382244 -2.941799 -20.246387 4.643653 -1.720406 -22.469620 11.004319 29.099226 46.280769 -0.352737 -3.350702 -14.471499 -1.531337 -12.660100 -1.216435 -0.133398 -13.386755 47.081524 0.290489 3.353504 -31.258722 9.024217 18.148691 
15.461773 45.997459 -46.882450 -12.431640 -1.171875 15.507611 32.688442 -3.219849 -2.041574 -10.963784 0.931204 -1.266524 11.307074 -0.081782 -9.094219 -4.702635 17.699322 -13.330168 -9.783613 -4.597968 -0.001065 -55.380615 -31.324142 6.074780 -131.157516 2.445182 30.545874 13.022257 16.010679 3.648731 19.811356 2.863336 -0.004799 47.871635 6.312106 -38.727379 141.743576 0.026838 0.994841 -16.842318 4.114052 -1.255855 -22.654263 10.719940 28.024424 48.659954 -0.216795 -3.464725 -19.543177 3.150305 -11.126880 -3.114917 -1.513404 -18.089043 56.138409 -0.263683 3.708636 -24.946220 12.361650 18.263447 
15.402610 45.390457 -45.485413 -13.349609 -1.064453 16.777161 33.984715 -3.488142 -3.081282 -10.779296 1.049777 -2.072744 11.832845 0.301001 -8.823698 -4.669837 18.969728 -13.267848 -12.158279 -3.315416 -0.005773 -54.087803 -38.021824 0.187946 -130.358780 2.503713 31.297604 10.979490 14.277809 2.738181 20.387163 3.395600 -0.002843 46.710812 10.916486 -43.859146 141.126450 -0.071425 2.120737 -11.254517 4.197973 -0.844970 -22.475056 10.872052 24.550411 51.848930 -0.031575 -3.579439 -23.781696 4.227051 -10.415400 -7.869716 -5.505536 -21.503189 68.825920 -1.113299 4.034050 -9.417993 18.655359 15.447338 
15.385290 44.665821 -44.321835 -13.164063 -0.205078 17.490244 34.848072 -4.794728 -4.621481 -10.809042 2.407013 -2.970713 12.091750 -0.570358 -8.599535 -5.446165 19.472406 -13.294247 -14.408531 -3.476886 -0.006743 -51.731632 -43.800800 -5.774971 -129.896790 2.397904 29.867361 10.182422 14.480723 2.567089 21.267691 2.683852 0.002532 46.141201 15.305593 -46.714848 140.874496 -0.229125 3.908051 -11.374153 6.112325 -1.232288 -23.950893 11.088690 24.180607 56.693417 0.278369 -3.755002 -25.299719 4.878032 -9.982887 -15.074996 -11.215369 -22.328897 79.894363 -1.894106 4.169813 -0.025685 17.570091 12.358050 
15.248676 43.959610 -43.250534 -12.695313 -0.097656 18.593748 35.190678 -5.216644 -5.761986 -10.361641 3.797196 -3.854258 10.697905 -1.190818 -8.415519 -4.905878 19.316860 -12.941072 -16.632584 -4.871939 -0.001019 -48.489086 -48.807087 -10.727365 -129.363708 2.301093 28.575346 11.899525 14.549998 3.030537 22.766426 2.337648 -0.007441 45.556973 18.583670 -49.041389 141.622086 -0.238412 4.070140 -13.098534 5.783315 -1.348457 -25.581533 11.918842 23.482121 60.963039 0.542791 -3.868848 -27.782282 4.590398 -9.922719 -22.096214 -15.668505 -22.470812 85.292259 -2.294964 4.193577 -1.917003 7.629900 12.527716 
15.018399 43.514160 -42.172867 -12.021484 -0.830078 19.882856 35.406616 -4.997173 -6.523769 -10.735371 5.532660 -4.664752 8.241661 -1.209843 -8.908525 -3.267964 17.930754 -12.838531 -17.086420 -5.423721 -0.005789 -50.452232 -51.576214 -11.117076 -129.067947 2.166495 26.879692 11.335158 15.808470 3.124724 24.280231 2.268584 -0.006316 45.487465 19.146549 -49.618290 142.272583 -0.035089 1.845620 -14.109350 5.256455 -1.322032 -27.475967 13.266508 21.980139 64.538956 0.785662 -3.967328 -29.043644 4.348468 -9.966029 -27.623955 -18.599283 -21.777790 83.090126 -2.128638 4.189912 -5.266301 0.880704 12.265708 
14.915870 43.338612 -40.935581 -12.041016 -1.132852 20.633924 35.918926 -4.458692 -6.615644 -11.434530 5.302869 -4.936246 7.413276 -0.636092 -9.777600 -3.760924 18.254026 -13.836917 -16.877596 -4.834520 -0.010378 -56.607594 -50.225990 -6.004210 -128.359131 2.084396 25.754719 12.802480 15.396888 3.449763 24.956518 3.608455 -0.001088 47.455654 17.154970 -46.059818 142.055115 -0.196321 3.581448 -14.112164 6.250134 -1.573152 -27.175867 14.323960 21.077360 66.545998 0.931242 -4.009769 -30.722345 4.057813 -10.027758 -29.869400 -20.327259 -19.329605 74.193565 -1.493851 4.134257 -7.172482 0.860451 12.286354 
14.911713 43.335705 -39.601860 -12.021484 -0.634766 21.337889 35.762543 -4.300780 -6.551194 -10.897365 5.072441 -4.912948 5.880329 -0.518431 -10.743210 -2.945121 18.180586 -14.588840 -16.482775 -4.622307 -0.005064 -62.442162 -46.589512 0.294220 -128.887085 2.071504 25.544479 12.141857 15.111293 3.205827 25.270029 5.725434 0.000099 48.708977 13.634888 -42.309814 140.954956 -0.326729 5.074577 -13.649727 6.117192 -1.489143 -25.765926 14.446456 20.517679 67.403099 0.989420 -4.037076 -31.933092 3.682247 -10.186193 -29.282213 -21.683285 -15.856863 60.348301 -0.546830 3.839849 -4.778560 5.936679 12.755342 
14.827611 43.450844 -38.234200 -12.021484 0.117188 22.695311 35.773705 -4.078524 -6.643758 -11.058206 4.446224 -5.064403 4.434434 0.250436 -11.795376 -1.410624 17.893518 -15.211800 -16.690565 -4.004104 -0.009437 -65.959648 -40.681370 6.071566 -129.387543 2.155302 26.675339 12.056620 13.904032 2.930598 24.768673 7.197762 -0.002310 52.028992 8.881021 -37.581066 139.375290 -0.387975 5.756046 -15.736332 7.500498 -2.116622 -24.080505 14.529449 20.045742 67.763153 1.019326 -4.052047 -32.475620 2.907880 -10.662260 -26.060757 -22.534410 -11.728839 43.070889 0.491389 3.212306 2.339763 10.873773 11.862349 
14.505057 43.615719 -36.713848 -12.089844 0.478516 24.853485 35.337032 -3.558370 -6.807277 -10.829557 3.832681 -5.421911 3.639759 1.087599 -13.015876 -1.542189 17.471443 -16.339323 -16.612570 -2.790161 -0.007516 -67.565056 -35.486160 11.412353 -128.712845 2.129518 26.286268 14.095587 14.545779 3.606896 24.218065 9.120018 0.001983 54.806870 3.598442 -33.281647 137.461502 -0.207035 3.688848 -20.137842 7.678891 -2.819367 -22.557833 15.506885 19.204033 67.987862 1.029175 -4.045221 -32.957119 1.449160 -11.618562 -21.991539 -22.840954 -4.949361 26.909666 1.259574 2.308504 8.956949 12.578721 10.388091 
14.166848 43.675301 -35.005199 -12.460938 1.865234 27.451359 35.028389 -3.512608 -7.538205 -10.349155 3.445720 -6.109809 3.079813 0.839110 -14.152674 -1.507973 17.218046 -17.441277 -15.854450 -1.490310 -0.006981 -68.032593 -32.174419 15.883780 -127.164612 1.832260 22.563393 15.985763 16.380289 4.609273 24.404415 9.712056 -0.003751 57.695747 -2.895907 -29.411163 135.376465 0.178915 -0.751802 -23.056658 7.296941 -3.107706 -20.170969 16.213240 18.566223 68.162971 1.047919 -4.049838 -33.078632 -0.706959 -13.089249 -20.620125 -24.496368 0.416498 22.710993 1.415775 2.074649 1.307850 6.735243 12.115718 
13.788042 43.686661 -33.352390 -12.001953 3.144531 30.313036 34.020084 -3.424870 -8.351330 -10.049933 2.578901 -6.938757 2.620275 -0.272817 -14.928912 -1.613127 18.671648 -18.509140 -14.618324 0.596954 -0.005866 -68.727478 -30.616108 19.348093 -126.417442 1.783439 21.983379 12.745460 18.419592 4.088922 25.893171 9.875931 -0.003023 60.330769 -10.669761 -26.643909 133.749496 0.450442 -3.867120 -25.144987 7.551737 -3.544614 -18.951355 16.624861 17.363552 68.445511 1.057511 -4.064715 -32.777267 -2.705856 -14.409445 -19.840553 -26.547987 -2.306913 24.826401 1.327731 2.186712 -10.118377 -1.207210 11.969935 
13.285508 43.725872 -31.893698 -11.220703 3.603516 32.002571 33.065201 -3.186458 -8.422104 -10.120056 1.582222 -7.150993 1.062255 -0.534706 -15.897551 -0.820487 18.225023 -19.242609 -13.580885 1.236376 -0.002821 -67.729134 -31.148378 21.277063 -126.507767 1.974348 24.350199 11.279906 17.401033 3.406803 26.126184 9.579293 -0.003450 62.229485 -15.782339 -22.955658 131.725037 0.418552 -3.631543 -25.099432 7.145222 -3.345214 -18.354799 17.911812 16.916708 68.376404 1.067234 -4.074826 -32.561726 -4.430751 -15.505446 -19.184961 -26.828880 -3.008199 26.977699 1.259444 2.321692 -10.586351 -4.879766 11.196908 
